<?xml version="1.0" encoding="UTF-8"?>
<svg width="29px" height="20px" viewBox="0 0 29 20" version="1.1" xmlns="http://www.w3.org/2000/svg" xmlns:xlink="http://www.w3.org/1999/xlink">
    <!-- Generator: Sketch 46.2 (44496) - http://www.bohemiancoding.com/sketch -->
    <title>ic_earnings</title>
    <desc>Created with Sketch.</desc>
    <defs></defs>
    <g id="Symbols" stroke="none" stroke-width="1" fill="none" fill-rule="evenodd">
        <g id="bottom-bar_transactions_focuseed" transform="translate(-32.000000, -9.000000)">
            <g id="Group-8" transform="translate(4.000000, 0.000000)">
                <g id="ic_earnings" transform="translate(28.000000, 9.000000)">
                    <path d="M0.5,0.5 L0.5,19.5 L28.4995228,19.5 L28.4813983,0.5 L0.5,0.5 Z" id="Shape" stroke="#5D6876" fill-rule="nonzero"></path>
                    <path d="M18.1640625,4.18261719 C17.840332,4.07470703 17.0766602,4 16.4956055,4 C13.8227539,4 11.5151367,5.41113281 10.8012695,8.25 L9,8.25 L9,9.37890625 L10.6103516,9.37890625 C10.5854492,9.64453125 10.5771484,9.91015625 10.5771484,10.1923828 C10.5771484,10.449707 10.5854492,10.7070312 10.6103516,10.9477539 L9,10.9477539 L9,12.0766602 L10.7929688,12.0766602 C11.4819336,14.9487305 13.8061523,16.3764648 16.4956055,16.3764648 C17.0766602,16.3764648 17.840332,16.3100586 18.1640625,16.2021484 L18.1640625,14.8574219 C17.8237305,14.9570312 17.0766602,15.0068359 16.4956055,15.0068359 C14.5532227,15.0068359 12.984375,14.0107422 12.3867188,12.0766602 L16.8525391,12.0766602 L16.8525391,10.9477539 L12.1542969,10.9477539 C12.1376953,10.7070312 12.1210938,10.4580078 12.1210938,10.2006836 C12.1210938,9.91845703 12.1376953,9.63623047 12.1625977,9.37890625 L16.8525391,9.37890625 L16.8525391,8.25 L12.4033203,8.25 C13.0258789,6.36572266 14.578125,5.38623047 16.4956055,5.38623047 C17.0766602,5.38623047 17.8237305,5.45263672 18.1640625,5.53564453 L18.1640625,4.18261719 Z" id="€" fill="#687381"></path>
                </g>
            </g>
        </g>
    </g>
</svg>