<?xml version="1.0" encoding="UTF-8"?>
<svg width="20px" height="20px" viewBox="0 0 20 20" version="1.1" xmlns="http://www.w3.org/2000/svg" xmlns:xlink="http://www.w3.org/1999/xlink">
    <!-- Generator: Sketch 46.2 (44496) - http://www.bohemiancoding.com/sketch -->
    <title>ic_e-ticket_active</title>
    <desc>Created with Sketch.</desc>
    <defs></defs>
    <g id="Symbols" stroke="none" stroke-width="1" fill="none" fill-rule="evenodd">
        <g id="bottom-bar_E-ticket" transform="translate(-224.000000, -9.000000)">
            <g id="Group-8" transform="translate(4.000000, 0.000000)">
                <g id="ic_e-ticket_active" transform="translate(219.000000, 9.000000)">
                    <rect id="Rectangle" fill="#3247A1" x="1" y="0" width="20" height="20"></rect>
                    <rect id="Rectangle-path" fill="#FFFFFF" fill-rule="nonzero" x="15" y="16" width="1" height="1"></rect>
                    <rect id="Rectangle-path" fill="#FFFFFF" fill-rule="nonzero" x="17" y="16" width="1" height="1"></rect>
                    <polygon id="Shape" fill="#FFFFFF" fill-rule="nonzero" points="16.8000066 12.2000919 15.6001116 12.2000919 15.6001116 11 12 11 12 17 13.2000919 17 13.2000919 13.3999869 14.3998884 13.3999869 14.3998884 14.6001116 18 14.6001116 18 11 18 11 16.8000066 11"></polygon>
                    <path d="M9,16 L9,12 L5,12 L5,16 L9,16 Z M4,17 L4,11 L10,11 L10,17 L4,17 Z" id="Shape" fill="#FFFFFF" fill-rule="nonzero"></path>
                    <path d="M5,8 L9,8 L9,4 L5,4 L5,8 Z M4,9 L4,3 L10,3 L10,9 L4,9 Z" id="Shape" fill="#FFFFFF" fill-rule="nonzero"></path>
                    <path d="M13,8 L17,8 L17,4 L13,4 L13,8 Z M12,9 L12,3 L18,3 L18,9 L12,9 Z" id="Shape" fill="#FFFFFF" fill-rule="nonzero"></path>
                    <rect id="Rectangle-path" fill="#FFFFFF" fill-rule="nonzero" x="6" y="13" width="2" height="2"></rect>
                    <rect id="Rectangle-path" fill="#FFFFFF" fill-rule="nonzero" x="6" y="5" width="2" height="2"></rect>
                    <rect id="Rectangle-path" fill="#FFFFFF" fill-rule="nonzero" x="14" y="5" width="2" height="2"></rect>
                </g>
            </g>
        </g>
    </g>
</svg>