<?xml version="1.0" encoding="UTF-8"?>
<svg width="20px" height="20px" viewBox="0 0 20 20" version="1.1" xmlns="http://www.w3.org/2000/svg" xmlns:xlink="http://www.w3.org/1999/xlink">
    <!-- Generator: Sketch 46.2 (44496) - http://www.bohemiancoding.com/sketch -->
    <title>ic_settings</title>
    <desc>Created with Sketch.</desc>
    <defs></defs>
    <g id="Symbols" stroke="none" stroke-width="1" fill="none" fill-rule="evenodd">
        <g id="bottom-bar_transactions_focuseed" transform="translate(-317.000000, -9.000000)" fill-rule="nonzero" fill="#687381">
            <g id="Group-8" transform="translate(4.000000, 0.000000)">
                <g id="ic_settings" transform="translate(313.000000, 9.000000)">
                    <path d="M8.4375,0 L8.3875,0.3375 L7.9625,2.9625 C7.4381548,3.11307532 6.9322048,3.30486892 6.4625,3.5625 L4.3,2.025 L4.025,1.825 L3.7875,2.0625 L2.0875,3.7625 L1.85,4 L2.05,4.275 L3.5625,6.45 C3.30235076,6.9207252 3.10397056,7.4229072 2.95,7.95 L0.3375,8.3875 L0,8.4375 L0,8.7875 L0,11.1875 L0,11.5125 L0.325,11.575 L2.9375,12.0375 C3.0908206,12.5645476 3.30133812,13.0659596 3.5625,13.5375 L2.025,15.7 L1.825,15.975 L2.0625,16.2125 L3.7625,17.9125 L4,18.15 L4.275,17.95 L6.4375,16.425 C6.9113768,16.686756 7.4204256,16.884254 7.95,17.0375 L8.3875,19.6625 L8.4375,20 L8.775,20 L11.175,20 L11.5125,20 L11.575,19.675 L12.0375,17.05 C12.5636384,16.895682 13.0545456,16.6739772 13.525,16.4125 L15.725,17.95 L16,18.15 L16.2375,17.9125 L17.9375,16.2125 L18.175,15.975 L17.975,15.6875 L16.4125,13.525 C16.668332,13.05931 16.8743104,12.5571668 17.025,12.0375 L19.675,11.575 L20,11.5125 L20,11.1875 L20,8.7875 L20,8.4375 L19.6625,8.3875 L17.0375,7.9625 C16.8857204,7.4385316 16.6703252,6.9443724 16.4125,6.475 L17.95,4.275 L18.15,4 L17.9125,3.7625 L16.2125,2.0625 L15.975,1.825 L15.6875,2.025 L13.5375,3.575 C13.0674156,3.31378092 12.5645016,3.11626932 12.0375,2.9625 L11.575,0.325 L11.5125,0 L11.175,0 L8.775,0 L8.4375,0 Z M9.125,0.8 L10.85,0.8 L11.2875,3.3125 L11.325,3.5625 L11.5875,3.625 C12.2292612,3.78478084 12.8247,4.0418048 13.375,4.375 L13.6,4.5125 L13.8125,4.3625 L15.875,2.875 L17.1,4.0875 L15.6375,6.1875 L15.4875,6.4 L15.6125,6.625 C15.9422944,7.1737776 16.1903896,7.7744356 16.35,8.4125 L16.425,8.6625 L16.675,8.7125 L19.2,9.125 L19.2,10.85 L16.675,11.2875 L16.4125,11.3375 L16.35,11.5875 C16.1920312,12.22503 15.9422108,12.8263608 15.6125,13.375 L15.4875,13.6 L15.6375,13.8125 L17.125,15.8875 L15.9125,17.1 L13.8125,15.6375 L13.6,15.4875 L13.375,15.625 C12.8277036,15.9581208 12.2270176,16.2127624 11.5875,16.375 L11.3375,16.4375 L11.2875,16.6875 L10.85,19.2 L9.1125,19.2 L8.7,16.7 L8.6625,16.4375 L8.4,16.375 C7.7575556,16.216274 7.1535276,15.9700692 6.6,15.6375 L6.3875,15.5 L6.1625,15.65 L4.0875,17.1 L2.875,15.875 L4.3375,13.825 L4.4875,13.6125 L4.3625,13.3875 C4.0264708,12.8323544 3.76020344,12.2324604 3.6,11.5875 L3.5375,11.3375 L3.2875,11.2875 L0.8,10.85 L0.8,9.125 L3.2875,8.7125 L3.55,8.6625 L3.6125,8.4125 C3.774405,7.7652572 4.0276248,7.154354 4.3625,6.6 L4.5,6.375 L4.35,6.1625 L2.9,4.0875 L4.1125,2.875 L6.175,4.3375 L6.3875,4.5 L6.6125,4.3625 C7.1634484,4.0313288 7.7696512,3.78269412 8.4125,3.625 L8.675,3.5625 L8.7125,3.3 L9.125,0.8 Z M10,6.4 C8.0165936,6.4 6.4,8.0165936 6.4,10 C6.4,11.9834064 8.0165936,13.6 10,13.6 C11.9834064,13.6 13.6,11.9834064 13.6,10 C13.6,8.0165936 11.9834064,6.4 10,6.4 Z M10,7.2 C11.5509936,7.2 12.8,8.4490064 12.8,10 C12.8,11.5509936 11.5509936,12.8 10,12.8 C8.4490064,12.8 7.2,11.5509936 7.2,10 C7.2,8.4490064 8.4490064,7.2 10,7.2 Z" id="Shape"></path>
                </g>
            </g>
        </g>
    </g>
</svg>